# This file uses centimeters as units for non-parametric coordinates.

mtllib testPlane.mtl
g default
v -11.962925 -0.000000 11.962925
v -9.570340 -0.000000 11.962925
v -7.177755 -0.000000 11.962925
v -4.785169 -0.000000 11.962925
v -2.392585 -0.000000 11.962925
v 0.000000 -0.000000 11.962925
v 2.392585 -0.000000 11.962925
v 4.785169 -0.000000 11.962925
v 7.177755 -0.000000 11.962925
v 9.570341 -0.000000 11.962925
v 11.962925 -0.000000 11.962925
v -11.962925 -0.000000 9.570340
v -9.570340 -0.000000 9.570340
v -7.177755 -0.000000 9.570340
v -4.785169 -0.000000 9.570340
v -2.392585 -0.000000 9.570340
v 0.000000 -0.000000 9.570340
v 2.392585 -0.000000 9.570340
v 4.785169 -0.000000 9.570340
v 7.177755 -0.000000 9.570340
v 9.570341 -0.000000 9.570340
v 11.962925 -0.000000 9.570340
v -11.962925 -0.000000 7.177755
v -9.570340 -0.000000 7.177755
v -7.177755 -0.000000 7.177755
v -4.785169 -0.000000 7.177755
v -2.392585 -0.000000 7.177755
v 0.000000 -0.000000 7.177755
v 2.392585 -0.000000 7.177755
v 4.785169 -0.000000 7.177755
v 7.177755 -0.000000 7.177755
v 9.570341 -0.000000 7.177755
v 11.962925 -0.000000 7.177755
v -11.962925 -0.000000 4.785169
v -9.570340 -0.000000 4.785169
v -7.177755 -0.000000 4.785169
v -4.785169 -0.000000 4.785169
v -2.392585 -0.000000 4.785169
v 0.000000 -0.000000 4.785169
v 2.392585 -0.000000 4.785169
v 4.785169 -0.000000 4.785169
v 7.177755 -0.000000 4.785169
v 9.570341 -0.000000 4.785169
v 11.962925 -0.000000 4.785169
v -11.962925 -0.000000 2.392585
v -9.570340 -0.000000 2.392585
v -7.177755 -0.000000 2.392585
v -4.785169 -0.000000 2.392585
v -2.392585 -0.000000 2.392585
v 0.000000 -0.000000 2.392585
v 2.392585 -0.000000 2.392585
v 4.785169 -0.000000 2.392585
v 7.177755 -0.000000 2.392585
v 9.570341 -0.000000 2.392585
v 11.962925 -0.000000 2.392585
v -11.962925 0.000000 0.000000
v -9.570340 0.000000 0.000000
v -7.177755 0.000000 0.000000
v -4.785169 0.000000 0.000000
v -2.392585 0.000000 0.000000
v 0.000000 0.000000 0.000000
v 2.392585 0.000000 0.000000
v 4.785169 0.000000 0.000000
v 7.177755 0.000000 0.000000
v 9.570341 0.000000 0.000000
v 11.962925 0.000000 0.000000
v -11.962925 0.000000 -2.392585
v -9.570340 0.000000 -2.392585
v -7.177755 0.000000 -2.392585
v -4.785169 0.000000 -2.392585
v -2.392585 0.000000 -2.392585
v 0.000000 0.000000 -2.392585
v 2.392585 0.000000 -2.392585
v 4.785169 0.000000 -2.392585
v 7.177755 0.000000 -2.392585
v 9.570341 0.000000 -2.392585
v 11.962925 0.000000 -2.392585
v -11.962925 0.000000 -4.785169
v -9.570340 0.000000 -4.785169
v -7.177755 0.000000 -4.785169
v -4.785169 0.000000 -4.785169
v -2.392585 0.000000 -4.785169
v 0.000000 0.000000 -4.785169
v 2.392585 0.000000 -4.785169
v 4.785169 0.000000 -4.785169
v 7.177755 0.000000 -4.785169
v 9.570341 0.000000 -4.785169
v 11.962925 0.000000 -4.785169
v -11.962925 0.000000 -7.177755
v -9.570340 0.000000 -7.177755
v -7.177755 0.000000 -7.177755
v -4.785169 0.000000 -7.177755
v -2.392585 0.000000 -7.177755
v 0.000000 0.000000 -7.177755
v 2.392585 0.000000 -7.177755
v 4.785169 0.000000 -7.177755
v 7.177755 0.000000 -7.177755
v 9.570341 0.000000 -7.177755
v 11.962925 0.000000 -7.177755
v -11.962925 0.000000 -9.570341
v -9.570340 0.000000 -9.570341
v -7.177755 0.000000 -9.570341
v -4.785169 0.000000 -9.570341
v -2.392585 0.000000 -9.570341
v 0.000000 0.000000 -9.570341
v 2.392585 0.000000 -9.570341
v 4.785169 0.000000 -9.570341
v 7.177755 0.000000 -9.570341
v 9.570341 0.000000 -9.570341
v 11.962925 0.000000 -9.570341
v -11.962925 0.000000 -11.962925
v -9.570340 0.000000 -11.962925
v -7.177755 0.000000 -11.962925
v -4.785169 0.000000 -11.962925
v -2.392585 0.000000 -11.962925
v 0.000000 0.000000 -11.962925
v 2.392585 0.000000 -11.962925
v 4.785169 0.000000 -11.962925
v 7.177755 0.000000 -11.962925
v 9.570341 0.000000 -11.962925
v 11.962925 0.000000 -11.962925
v 0.000000 0.836786 4.785169
v 2.392585 0.836786 4.785169
v 2.392585 0.836786 2.392585
v 0.000000 0.836786 2.392585
vt 0.000000 0.000000
vt 0.100000 0.000000
vt 0.200000 0.000000
vt 0.300000 0.000000
vt 0.400000 0.000000
vt 0.500000 0.000000
vt 0.600000 0.000000
vt 0.700000 0.000000
vt 0.800000 0.000000
vt 0.900000 0.000000
vt 1.000000 0.000000
vt 0.000000 0.100000
vt 0.100000 0.100000
vt 0.200000 0.100000
vt 0.300000 0.100000
vt 0.400000 0.100000
vt 0.500000 0.100000
vt 0.600000 0.100000
vt 0.700000 0.100000
vt 0.800000 0.100000
vt 0.900000 0.100000
vt 1.000000 0.100000
vt 0.000000 0.200000
vt 0.100000 0.200000
vt 0.200000 0.200000
vt 0.300000 0.200000
vt 0.400000 0.200000
vt 0.500000 0.200000
vt 0.600000 0.200000
vt 0.700000 0.200000
vt 0.800000 0.200000
vt 0.900000 0.200000
vt 1.000000 0.200000
vt 0.000000 0.300000
vt 0.100000 0.300000
vt 0.200000 0.300000
vt 0.300000 0.300000
vt 0.400000 0.300000
vt 0.500000 0.300000
vt 0.600000 0.300000
vt 0.700000 0.300000
vt 0.800000 0.300000
vt 0.900000 0.300000
vt 1.000000 0.300000
vt 0.000000 0.400000
vt 0.100000 0.400000
vt 0.200000 0.400000
vt 0.300000 0.400000
vt 0.400000 0.400000
vt 0.500000 0.400000
vt 0.600000 0.400000
vt 0.700000 0.400000
vt 0.800000 0.400000
vt 0.900000 0.400000
vt 1.000000 0.400000
vt 0.000000 0.500000
vt 0.100000 0.500000
vt 0.200000 0.500000
vt 0.300000 0.500000
vt 0.400000 0.500000
vt 0.500000 0.500000
vt 0.600000 0.500000
vt 0.700000 0.500000
vt 0.800000 0.500000
vt 0.900000 0.500000
vt 1.000000 0.500000
vt 0.000000 0.600000
vt 0.100000 0.600000
vt 0.200000 0.600000
vt 0.300000 0.600000
vt 0.400000 0.600000
vt 0.500000 0.600000
vt 0.600000 0.600000
vt 0.700000 0.600000
vt 0.800000 0.600000
vt 0.900000 0.600000
vt 1.000000 0.600000
vt 0.000000 0.700000
vt 0.100000 0.700000
vt 0.200000 0.700000
vt 0.300000 0.700000
vt 0.400000 0.700000
vt 0.500000 0.700000
vt 0.600000 0.700000
vt 0.700000 0.700000
vt 0.800000 0.700000
vt 0.900000 0.700000
vt 1.000000 0.700000
vt 0.000000 0.800000
vt 0.100000 0.800000
vt 0.200000 0.800000
vt 0.300000 0.800000
vt 0.400000 0.800000
vt 0.500000 0.800000
vt 0.600000 0.800000
vt 0.700000 0.800000
vt 0.800000 0.800000
vt 0.900000 0.800000
vt 1.000000 0.800000
vt 0.000000 0.900000
vt 0.100000 0.900000
vt 0.200000 0.900000
vt 0.300000 0.900000
vt 0.400000 0.900000
vt 0.500000 0.900000
vt 0.600000 0.900000
vt 0.700000 0.900000
vt 0.800000 0.900000
vt 0.900000 0.900000
vt 1.000000 0.900000
vt 0.000000 1.000000
vt 0.100000 1.000000
vt 0.200000 1.000000
vt 0.300000 1.000000
vt 0.400000 1.000000
vt 0.500000 1.000000
vt 0.600000 1.000000
vt 0.700000 1.000000
vt 0.800000 1.000000
vt 0.900000 1.000000
vt 1.000000 1.000000
vt 0.500000 0.300000
vt 0.600000 0.300000
vt 0.600000 0.400000
vt 0.500000 0.400000
vn 0.000000 1.000000 0.000000
vn 0.000000 1.000000 0.000000
vn 0.000000 1.000000 0.000000
vn 0.000000 1.000000 0.000000
vn 0.000000 1.000000 0.000000
vn 0.000000 1.000000 0.000000
vn 0.000000 1.000000 0.000000
vn 0.000000 1.000000 0.000000
vn 0.000000 1.000000 0.000000
vn 0.000000 1.000000 0.000000
vn 0.000000 1.000000 0.000000
vn 0.000000 1.000000 0.000000
vn 0.000000 1.000000 0.000000
vn 0.000000 1.000000 0.000000
vn 0.000000 1.000000 0.000000
vn 0.000000 1.000000 0.000000
vn 0.000000 1.000000 0.000000
vn 0.000000 1.000000 0.000000
vn 0.000000 1.000000 0.000000
vn 0.000000 1.000000 0.000000
vn 0.000000 1.000000 0.000000
vn 0.000000 1.000000 0.000000
vn 0.000000 1.000000 0.000000
vn 0.000000 1.000000 0.000000
vn 0.000000 1.000000 0.000000
vn 0.000000 1.000000 0.000000
vn 0.000000 1.000000 0.000000
vn 0.000000 1.000000 0.000000
vn 0.000000 1.000000 0.000000
vn 0.000000 1.000000 0.000000
vn 0.000000 1.000000 0.000000
vn 0.000000 1.000000 0.000000
vn 0.000000 1.000000 0.000000
vn 0.000000 1.000000 0.000000
vn 0.000000 1.000000 0.000000
vn 0.000000 1.000000 0.000000
vn 0.000000 1.000000 0.000000
vn 0.000000 1.000000 0.000000
vn 0.000000 1.000000 0.000000
vn 0.000000 1.000000 0.000000
vn 0.000000 1.000000 0.000000
vn 0.000000 1.000000 0.000000
vn 0.000000 1.000000 0.000000
vn 0.000000 1.000000 0.000000
vn 0.000000 1.000000 0.000000
vn 0.000000 1.000000 0.000000
vn 0.000000 1.000000 0.000000
vn 0.000000 1.000000 0.000000
vn 0.000000 1.000000 0.000000
vn 0.000000 1.000000 0.000000
vn 0.000000 1.000000 0.000000
vn 0.000000 1.000000 0.000000
vn 0.000000 1.000000 0.000000
vn 0.000000 1.000000 0.000000
vn 0.000000 1.000000 0.000000
vn 0.000000 1.000000 0.000000
vn 0.000000 1.000000 0.000000
vn 0.000000 1.000000 0.000000
vn 0.000000 1.000000 0.000000
vn 0.000000 1.000000 0.000000
vn 0.000000 1.000000 0.000000
vn 0.000000 1.000000 0.000000
vn 0.000000 1.000000 0.000000
vn 0.000000 1.000000 0.000000
vn 0.000000 1.000000 0.000000
vn 0.000000 1.000000 0.000000
vn 0.000000 1.000000 0.000000
vn 0.000000 1.000000 0.000000
vn 0.000000 1.000000 0.000000
vn 0.000000 1.000000 0.000000
vn 0.000000 1.000000 0.000000
vn 0.000000 1.000000 0.000000
vn 0.000000 1.000000 0.000000
vn 0.000000 1.000000 0.000000
vn 0.000000 1.000000 0.000000
vn 0.000000 1.000000 0.000000
vn 0.000000 1.000000 0.000000
vn 0.000000 1.000000 0.000000
vn 0.000000 1.000000 0.000000
vn 0.000000 1.000000 0.000000
vn 0.000000 1.000000 0.000000
vn 0.000000 1.000000 0.000000
vn 0.000000 1.000000 0.000000
vn 0.000000 1.000000 0.000000
vn 0.000000 1.000000 0.000000
vn 0.000000 1.000000 0.000000
vn 0.000000 1.000000 0.000000
vn 0.000000 1.000000 0.000000
vn 0.000000 1.000000 0.000000
vn 0.000000 1.000000 0.000000
vn 0.000000 1.000000 0.000000
vn 0.000000 1.000000 0.000000
vn 0.000000 1.000000 0.000000
vn 0.000000 1.000000 0.000000
vn 0.000000 1.000000 0.000000
vn 0.000000 1.000000 0.000000
vn 0.000000 1.000000 0.000000
vn 0.000000 1.000000 0.000000
vn 0.000000 1.000000 0.000000
vn 0.000000 1.000000 0.000000
vn 0.000000 1.000000 0.000000
vn 0.000000 1.000000 0.000000
vn 0.000000 1.000000 0.000000
vn 0.000000 1.000000 0.000000
vn 0.000000 1.000000 0.000000
vn 0.000000 1.000000 0.000000
vn 0.000000 1.000000 0.000000
vn 0.000000 1.000000 0.000000
vn 0.000000 1.000000 0.000000
vn 0.000000 1.000000 0.000000
vn 0.000000 1.000000 0.000000
vn 0.000000 1.000000 0.000000
vn 0.000000 1.000000 0.000000
vn 0.000000 1.000000 0.000000
vn 0.000000 1.000000 0.000000
vn 0.000000 1.000000 0.000000
vn 0.000000 1.000000 0.000000
vn 0.000000 1.000000 0.000000
vn 0.000000 1.000000 0.000000
vn 0.000000 1.000000 0.000000
vn 0.000000 1.000000 0.000000
vn 0.000000 1.000000 0.000000
vn 0.000000 1.000000 0.000000
vn 0.000000 1.000000 0.000000
vn 0.000000 1.000000 0.000000
vn 0.000000 0.000000 1.000000
vn 0.000000 0.000000 1.000000
vn 0.000000 0.000000 1.000000
vn 0.000000 0.000000 1.000000
vn 1.000000 0.000000 0.000000
vn 1.000000 0.000000 0.000000
vn 1.000000 0.000000 0.000000
vn 1.000000 0.000000 0.000000
vn 0.000000 0.000000 -1.000000
vn 0.000000 0.000000 -1.000000
vn 0.000000 0.000000 -1.000000
vn 0.000000 0.000000 -1.000000
vn -1.000000 0.000000 0.000000
vn -1.000000 0.000000 0.000000
vn -1.000000 0.000000 0.000000
vn -1.000000 0.000000 0.000000
s 1
g pPlane1
usemtl initialShadingGroup
f 1/1/1 2/2/2 13/13/3 12/12/4
f 2/2/2 3/3/5 14/14/6 13/13/3
f 3/3/5 4/4/7 15/15/8 14/14/6
f 4/4/7 5/5/9 16/16/10 15/15/8
f 5/5/9 6/6/11 17/17/12 16/16/10
f 6/6/11 7/7/13 18/18/14 17/17/12
f 7/7/13 8/8/15 19/19/16 18/18/14
f 8/8/15 9/9/17 20/20/18 19/19/16
f 9/9/17 10/10/19 21/21/20 20/20/18
f 10/10/19 11/11/21 22/22/22 21/21/20
f 12/12/4 13/13/3 24/24/23 23/23/24
f 13/13/3 14/14/6 25/25/25 24/24/23
f 14/14/6 15/15/8 26/26/26 25/25/25
f 15/15/8 16/16/10 27/27/27 26/26/26
f 16/16/10 17/17/12 28/28/28 27/27/27
f 17/17/12 18/18/14 29/29/29 28/28/28
f 18/18/14 19/19/16 30/30/30 29/29/29
f 19/19/16 20/20/18 31/31/31 30/30/30
f 20/20/18 21/21/20 32/32/32 31/31/31
f 21/21/20 22/22/22 33/33/33 32/32/32
f 23/23/24 24/24/23 35/35/34 34/34/35
f 24/24/23 25/25/25 36/36/36 35/35/34
f 25/25/25 26/26/26 37/37/37 36/36/36
f 26/26/26 27/27/27 38/38/38 37/37/37
f 27/27/27 28/28/28 39/39/39 38/38/38
f 28/28/28 29/29/29 40/40/40 39/39/39
f 29/29/29 30/30/30 41/41/41 40/40/40
f 30/30/30 31/31/31 42/42/42 41/41/41
f 31/31/31 32/32/32 43/43/43 42/42/42
f 32/32/32 33/33/33 44/44/44 43/43/43
f 34/34/35 35/35/34 46/46/45 45/45/46
f 35/35/34 36/36/36 47/47/47 46/46/45
f 36/36/36 37/37/37 48/48/48 47/47/47
f 37/37/37 38/38/38 49/49/49 48/48/48
f 38/38/38 39/39/39 50/50/50 49/49/49
s off
f 122/122/51 123/123/52 124/124/53 125/125/54
s 1
f 40/40/40 41/41/41 52/52/55 51/51/56
f 41/41/41 42/42/42 53/53/57 52/52/55
f 42/42/42 43/43/43 54/54/58 53/53/57
f 43/43/43 44/44/44 55/55/59 54/54/58
f 45/45/46 46/46/45 57/57/60 56/56/61
f 46/46/45 47/47/47 58/58/62 57/57/60
f 47/47/47 48/48/48 59/59/63 58/58/62
f 48/48/48 49/49/49 60/60/64 59/59/63
f 49/49/49 50/50/50 61/61/65 60/60/64
f 50/50/50 51/51/56 62/62/66 61/61/65
f 51/51/56 52/52/55 63/63/67 62/62/66
f 52/52/55 53/53/57 64/64/68 63/63/67
f 53/53/57 54/54/58 65/65/69 64/64/68
f 54/54/58 55/55/59 66/66/70 65/65/69
f 56/56/61 57/57/60 68/68/71 67/67/72
f 57/57/60 58/58/62 69/69/73 68/68/71
f 58/58/62 59/59/63 70/70/74 69/69/73
f 59/59/63 60/60/64 71/71/75 70/70/74
f 60/60/64 61/61/65 72/72/76 71/71/75
f 61/61/65 62/62/66 73/73/77 72/72/76
f 62/62/66 63/63/67 74/74/78 73/73/77
f 63/63/67 64/64/68 75/75/79 74/74/78
f 64/64/68 65/65/69 76/76/80 75/75/79
f 65/65/69 66/66/70 77/77/81 76/76/80
f 67/67/72 68/68/71 79/79/82 78/78/83
f 68/68/71 69/69/73 80/80/84 79/79/82
f 69/69/73 70/70/74 81/81/85 80/80/84
f 70/70/74 71/71/75 82/82/86 81/81/85
f 71/71/75 72/72/76 83/83/87 82/82/86
f 72/72/76 73/73/77 84/84/88 83/83/87
f 73/73/77 74/74/78 85/85/89 84/84/88
f 74/74/78 75/75/79 86/86/90 85/85/89
f 75/75/79 76/76/80 87/87/91 86/86/90
f 76/76/80 77/77/81 88/88/92 87/87/91
f 78/78/83 79/79/82 90/90/93 89/89/94
f 79/79/82 80/80/84 91/91/95 90/90/93
f 80/80/84 81/81/85 92/92/96 91/91/95
f 81/81/85 82/82/86 93/93/97 92/92/96
f 82/82/86 83/83/87 94/94/98 93/93/97
f 83/83/87 84/84/88 95/95/99 94/94/98
f 84/84/88 85/85/89 96/96/100 95/95/99
f 85/85/89 86/86/90 97/97/101 96/96/100
f 86/86/90 87/87/91 98/98/102 97/97/101
f 87/87/91 88/88/92 99/99/103 98/98/102
f 89/89/94 90/90/93 101/101/104 100/100/105
f 90/90/93 91/91/95 102/102/106 101/101/104
f 91/91/95 92/92/96 103/103/107 102/102/106
f 92/92/96 93/93/97 104/104/108 103/103/107
f 93/93/97 94/94/98 105/105/109 104/104/108
f 94/94/98 95/95/99 106/106/110 105/105/109
f 95/95/99 96/96/100 107/107/111 106/106/110
f 96/96/100 97/97/101 108/108/112 107/107/111
f 97/97/101 98/98/102 109/109/113 108/108/112
f 98/98/102 99/99/103 110/110/114 109/109/113
f 100/100/105 101/101/104 112/112/115 111/111/116
f 101/101/104 102/102/106 113/113/117 112/112/115
f 102/102/106 103/103/107 114/114/118 113/113/117
f 103/103/107 104/104/108 115/115/119 114/114/118
f 104/104/108 105/105/109 116/116/120 115/115/119
f 105/105/109 106/106/110 117/117/121 116/116/120
f 106/106/110 107/107/111 118/118/122 117/117/121
f 107/107/111 108/108/112 119/119/123 118/118/122
f 108/108/112 109/109/113 120/120/124 119/119/123
f 109/109/113 110/110/114 121/121/125 120/120/124
s off
f 39/39/126 40/40/127 123/123/128 122/122/129
f 40/40/130 51/51/131 124/124/132 123/123/133
f 51/51/134 50/50/135 125/125/136 124/124/137
f 50/50/138 39/39/139 122/122/140 125/125/141
